<svg width="47" height="46" viewBox="0 0 47 46" fill="none" xmlns="http://www.w3.org/2000/svg">
<line y1="-0.25" x2="19.2886" y2="-0.25" transform="matrix(0.723739 0.690074 -0.666567 0.745445 9.14706 21.4185)" stroke="black" stroke-width="0.5"/>
<line y1="-0.25" x2="19.2886" y2="-0.25" transform="matrix(0.723739 0.690074 -0.666567 0.745445 22.0371 7.00305)" stroke="black" stroke-width="0.5"/>
<line y1="-0.25" x2="19.3342" y2="-0.25" transform="matrix(0.671014 -0.741445 0.719579 0.694411 23.0265 34.7319)" stroke="black" stroke-width="0.5"/>
<line y1="-0.25" x2="19.3342" y2="-0.25" transform="matrix(0.671014 -0.741445 0.719579 0.694411 9.1441 21.3353)" stroke="black" stroke-width="0.5"/>
<line y1="-0.25" x2="19.2886" y2="-0.25" transform="matrix(0.723739 0.690074 -0.666567 0.745445 9.00297 25.474)" stroke="black" stroke-width="0.5"/>
<line y1="-0.25" x2="19.2886" y2="-0.25" transform="matrix(0.723739 0.690074 -0.666567 0.745445 21.893 11.0587)" stroke="black" stroke-width="0.5"/>
<line y1="-0.25" x2="19.3342" y2="-0.25" transform="matrix(0.671014 -0.741445 0.719579 0.694411 22.8824 38.7876)" stroke="black" stroke-width="0.5"/>
<line y1="-0.25" x2="19.3342" y2="-0.25" transform="matrix(0.671014 -0.741445 0.719579 0.694411 9 25.3909)" stroke="black" stroke-width="0.5"/>
</svg>
