<svg width="47" height="46" viewBox="0 0 47 46" fill="none" xmlns="http://www.w3.org/2000/svg">
<g clip-path="url(#clip0_12_228)">
<rect x="9.25" y="7.25" width="28.5" height="30.5" stroke="black" stroke-width="0.5"/>
<path d="M9.49998 37.5L37.5 7.50001M37.5 37.9999L9.49999 7.50006M37.5 37.9998L9.49999 7.50001" stroke="black" stroke-width="0.5"/>
<path d="M16.8917 29.75H30" stroke="black" stroke-width="0.5"/>
<path d="M16.5 15H30.5" stroke="black" stroke-width="0.5"/>
<circle cx="30" cy="30" r="1" fill="black"/>
<circle cx="30" cy="30" r="1" fill="black"/>
<circle cx="30" cy="30" r="1" fill="black"/>
<path d="M24.5 22.5C24.5 23.0523 24.0523 23.5 23.5 23.5C22.9477 23.5 22.5 23.0523 22.5 22.5C22.5 21.9477 22.9477 21.5 23.5 21.5C24.0523 21.5 24.5 21.9477 24.5 22.5Z" fill="black"/>
<path d="M24.5 22.5C24.5 23.0523 24.0523 23.5 23.5 23.5C22.9477 23.5 22.5 23.0523 22.5 22.5C22.5 21.9477 22.9477 21.5 23.5 21.5C24.0523 21.5 24.5 21.9477 24.5 22.5Z" fill="black"/>
<path d="M24.5 22.5C24.5 23.0523 24.0523 23.5 23.5 23.5C22.9477 23.5 22.5 23.0523 22.5 22.5C22.5 21.9477 22.9477 21.5 23.5 21.5C24.0523 21.5 24.5 21.9477 24.5 22.5Z" fill="black"/>
<path d="M31 30C31 30.5523 30.5523 31 30 31C29.4477 31 29 30.5523 29 30C29 29.4477 29.4477 29 30 29C30.5523 29 31 29.4477 31 30Z" fill="black"/>
<path d="M31 30C31 30.5523 30.5523 31 30 31C29.4477 31 29 30.5523 29 30C29 29.4477 29.4477 29 30 29C30.5523 29 31 29.4477 31 30Z" fill="black"/>
<path d="M31 30C31 30.5523 30.5523 31 30 31C29.4477 31 29 30.5523 29 30C29 29.4477 29.4477 29 30 29C30.5523 29 31 29.4477 31 30Z" fill="black"/>
<circle cx="17" cy="30" r="1" fill="black"/>
<circle cx="17" cy="30" r="1" fill="black"/>
<circle cx="17" cy="30" r="1" fill="black"/>
<circle cx="17" cy="15" r="1" fill="black"/>
<circle cx="17" cy="15" r="1" fill="black"/>
<circle cx="17" cy="15" r="1" fill="black"/>
<circle cx="30" cy="15" r="1" fill="black"/>
<circle cx="30" cy="15" r="1" fill="black"/>
<circle cx="30" cy="15" r="1" fill="black"/>
</g>
<defs>
<clipPath id="clip0_12_228">
<rect width="47" height="46" fill="white"/>
</clipPath>
</defs>
</svg>
